<mxfile host="app.diagrams.net" modified="2023-07-26T09:43:16.290Z" agent="Mozilla/5.0 (Macintosh; Intel Mac OS X 10_15_7) AppleWebKit/537.36 (KHTML, like Gecko) Chrome/114.0.0.0 Safari/537.36" version="21.3.7" etag="UeegODiESnweeK5_4z4P" type="github">
  <diagram name="第 1 页" id="qHLUYskQ19izgAknZc9V">
    <mxGraphModel>
      <root>
        <mxCell id="0" />
        <mxCell id="1" parent="0" />
      </root>
    </mxGraphModel>
  </diagram>
</mxfile>
